<svg xmlns="http://www.w3.org/2000/svg" width="32" height="32"><path fill="#212121" d="m30.775 22.098-8.443-8.503.937-4.617c.242.091.498.142.759.146h.027a2.158 2.158 0 1 0-2.029-1.421l-.005-.015-4.955.603L8.975.158a.537.537 0 0 0-.379-.16.517.517 0 0 0-.37.155L6.713 1.657a.53.53 0 0 0 0 .754l.814.823c-1.143 2.062-1.816 4.522-1.816 7.14 0 4.106 1.656 7.824 4.336 10.525l-.001-.001a.531.531 0 0 0 .146.101c-.032.183-.05.366-.05.549v6.185h-6.4a2.67 2.67 0 0 0-2.67 2.665v1.065c0 .297.238.535.535.535h24.535c.293 0 .53-.238.53-.535v-1.065a2.67 2.67 0 0 0-2.665-2.665h-6.4V24.99c.915.2 1.966.315 3.043.315 2.581 0 5.008-.659 7.123-1.817l-.077.039.818.823a.52.52 0 0 0 .375.16.555.555 0 0 0 .375-.155l1.509-1.509a.525.525 0 0 0 0-.75zM23.278 6.235a1.065 1.065 0 1 1 .754 1.819h-.002a1.065 1.065 0 0 1-.747-1.824zm-1.253 3.502-.599 2.944-1.175-1.179 1.774-1.765zm-.608-.9-1.92 1.906-1.486-1.49 3.406-.416zM24.005 28.8a1.6 1.6 0 0 1 1.6 1.6v.535H2.14V30.4a1.6 1.6 0 0 1 1.6-1.6h20.261zm-7.466-2.135v1.07H11.2v-1.07h5.335zM11.2 25.6v-4.055c0-1.294 1.198-2.345 2.665-2.345 1.472 0 2.67 1.051 2.67 2.345V25.6H11.2zm6.4-1.696v-2.359c0-1.879-1.673-3.41-3.735-3.41h-.062a3.796 3.796 0 0 0-3.211 1.768l-.009.016a13.814 13.814 0 0 1-3.809-9.548c0-2.314.567-4.496 1.569-6.415l-.036.077 18.606 18.711c-1.822.946-3.978 1.501-6.264 1.501-1.08 0-2.132-.124-3.141-.358l.093.018zm11.291-.686-.754-.754L7.835 2.039l.754-.75L29.65 22.468l-.759.75z"/><path fill="#2196f3" d="M13.874 20.265h-.005a1.6 1.6 0 0 0-.005 3.2h.007a1.6 1.6 0 0 0 .002-3.2zm.375 1.98a.534.534 0 0 1-.912-.38c0-.296.238-.533.532-.535a.535.535 0 0 1 .375.914z"/></svg>