<svg xmlns="http://www.w3.org/2000/svg" width="32" height="32"><path fill="#2196f3" d="M31.973 4.526a.537.537 0 0 0-.43-.366l-1.911-.274-.855-1.737c-.178-.361-.777-.361-.955 0l-.85 1.737-1.911.274a.535.535 0 0 0-.297.915l1.385 1.344-.325 1.902a.535.535 0 0 0 .776.561l-.003.001 1.71-.896 1.705.896a.535.535 0 0 0 .777-.566v.003l-.329-1.902 1.385-1.349a.538.538 0 0 0 .137-.549zm-2.46 1.325a.53.53 0 0 0-.155.471l.192 1.115-1.001-.526a.525.525 0 0 0-.501.002l.003-.001-1.001.526.192-1.115a.529.529 0 0 0-.151-.471l-.814-.791 1.12-.16a.541.541 0 0 0 .402-.293l.503-1.015.498 1.015a.55.55 0 0 0 .402.293l1.12.16-.809.791zm-3.378 14.675h-1.07v1.065h1.07v-1.07zm0 2.13h-1.07v1.065h1.07v-1.065zm1.065-1.065h-1.065v1.065H27.2v-1.065zm-2.135 0H24v1.065h1.065v-1.065zm-2.665 4.8h-1.065v1.065H22.4v-1.065zm0 2.135h-1.065v1.065H22.4v-1.07zm1.065-1.07H22.4v1.065h1.065v-1.065zm-2.13 0h-1.07v1.065h1.07v-1.065zM16 24.256h-1.065v1.065H16v-1.065zm0 2.135h-1.065v1.065H16v-1.065zm1.065-1.065H16v1.065h1.065v-1.07zm-2.13 0h-1.07v1.065h1.07v-1.07zm-9.07-19.2H4.8v1.065h1.065v-1.07zm0 2.13H4.8v1.065h1.065V8.256zm1.07-1.065h-1.07v1.065h1.07V7.191zm-2.135 0H3.735v1.065H4.8V7.191z"/><path fill="#212121" d="M24.713 14.158a1.776 1.776 0 0 0-1.179-.703l-.009-.001a1.769 1.769 0 0 0-1.343.355l.004-.003-1.248.96-1.902 1.417-1.358-.539c2.423-1.088 4.114-3.506 4.114-6.322 0-3.822-3.122-6.93-6.962-6.93s-6.958 3.109-6.958 6.93c0 1.39.411 2.674 1.12 3.762l-2.77-.027-.023.005a.451.451 0 0 0-.155.032l-.037.014-.023.005-3.232 1.6-1.893.91a1.783 1.783 0 0 0 1.784 3.085l-.01.005 1.385-.736 2.263-1.17 1.358-.009L.86 23.555a1.644 1.644 0 0 0-.001 2.354 1.664 1.664 0 0 0 2.358 0l1.307-1.312 1.742-1.298.901.896-1.76 1.755-1.339 1.33a1.641 1.641 0 0 0 0 2.358 1.664 1.664 0 0 0 2.358 0l3.483-3.47 1.015-1.006h-.005l.018-.018 5.166-5.659 3.474.498a.502.502 0 0 0 .264-.038l-.003.001.05-.023c.018-.009.041-.014.059-.027l3.214-2.13.027-.032.041-.023 1.271-1.193c.347-.326.562-.788.562-1.3 0-.401-.132-.771-.355-1.068l.003.005zM2.13 17.769a.716.716 0 0 1-.775-1.205l.003-.002 1.317-.631.315.923.133.389-.992.526zm3.497-1.828-1.55.8L3.821 16l-.183-.535 2.03-1.006-.041 1.486zm15.1-6.615a5.8 5.8 0 0 1-.599 2.56l-4.183-1.897a1.862 1.862 0 0 0-.78-1.386l-.006-.004 1.463-4.859c2.377.754 4.105 2.971 4.105 5.586zm-11.79 0a5.888 5.888 0 0 1 6.672-5.816l-.03-.003-1.435 4.754-.055-.005a1.874 1.874 0 0 0-1.874 1.865v.001a1.874 1.874 0 0 0 3.488.932l.005-.009 3.858 1.755A5.893 5.893 0 0 1 8.932 9.327v-.001zm5.957.8a.807.807 0 1 1-1.614 0c0-.439.366-.8.809-.8s.805.361.805.8zM2.469 25.147a.614.614 0 0 1-.855 0 .593.593 0 0 1 0-.846l.96-.96.855.85-.965.951zm3.213 3.731a.601.601 0 0 1-.855-.842l.96-.96.855.846-.96.96zm3.484-3.465-1.769 1.76-.85-.85 1.765-1.751c.041-.046.064-.091.091-.137l.023-.046a.366.366 0 0 0 .027-.123c0-.027.014-.046.014-.073 0-.037-.014-.073-.018-.105l-.018-.096a.694.694 0 0 0-.091-.137l-.027-.041-1.609-1.6c-.014-.018-.037-.023-.055-.037-.032-.023-.059-.046-.091-.059a.504.504 0 0 0-.088-.031l-.003-.001a.542.542 0 0 0-.098-.023h-.003c-.032 0-.064 0-.096.009-.037 0-.069.009-.105.018a.312.312 0 0 0-.091.046c-.023.009-.046.014-.064.027l-1.774 1.326-.901-.901 2.4-2.386 4.361 4.293-.928.914zm6.816-7.018h-.046l-.025-.001a.521.521 0 0 0-.355.138l-.041.032-4.699 5.143-4.325-4.251 2.834-2.821a.535.535 0 0 0-.377-.914h-.007l-2.217.014.027-1.609 3.104.027a6.926 6.926 0 0 0 4.977 2.099c.455 0 .899-.044 1.33-.127l-.044.007a.544.544 0 0 0 .128.087l2.409.96.151.759.183.882-3.008-.425zm4.041.179-.311-1.559 1.445-1.079.379.503.567.75-2.08 1.385zm3.758-2.835-.841.786-.928-1.234.827-.64a.73.73 0 0 1 .553-.141l-.004-.001a.719.719 0 0 1 .394 1.234z"/><path fill="#212121" d="m13.6 18.546-2.139-2.135a.535.535 0 0 0-.754 0l-2.144 2.135a.535.535 0 0 0 0 .754l2.144 2.135a.535.535 0 0 0 .754 0L13.6 19.3a.535.535 0 0 0 0-.754zm-2.514 1.756-1.394-1.376 1.385-1.381 1.39 1.381-1.39 1.381zm6.08-15.228-.261 1.033c.073.018 1.737.453 1.737 2.149h1.07c0-2.016-1.669-2.967-2.546-3.186zm2.546 4.252h-1.07v1.065h1.07v-1.07z"/></svg>