<svg xmlns="http://www.w3.org/2000/svg" width="32" height="32"><path fill="#212121" d="M31.296 15.301C31.295 6.849 24.443-.002 15.991-.002S.686 6.85.686 15.303c0 6.79 4.422 12.548 10.543 14.55l.108.031a.678.678 0 0 0 .534-.066l-.003.002a.644.644 0 0 0 .283-.357l3.863-12.251a1.911 1.911 0 1 0-.852-3.63l.011-.005-5.102-5.106a.64.64 0 0 0-.905.901l-.001-.001 5.106 5.111a1.871 1.871 0 0 0 .531 2.305l.004.003-3.685 11.671c-5.408-2.035-9.186-7.165-9.186-13.177 0-7.756 6.287-14.043 14.043-14.043s14.043 6.287 14.043 14.043c0 5.688-3.381 10.586-8.243 12.793l-.088.036-.398-1.874a.642.642 0 0 0-1.048-.343l.001-.001-3.84 3.429a.64.64 0 0 0 .228 1.078l.005.001 4.901 1.563a.64.64 0 0 0 .818-.745l.001.004-.393-1.838c5.529-2.374 9.33-7.772 9.33-14.057v-.034.002zm-15.305-.64a.64.64 0 0 1 0 1.28.64.64 0 0 1 0-1.28zm2.103 14.866 2.185-1.947.599 2.839-2.789-.891z"/><path fill="#2196f3" d="M15.355 3.186v1.275a.64.64 0 1 0 1.276-.002v.002-1.28a.64.64 0 0 0-1.28 0zM3.877 14.665a.641.641 0 0 0-.002 1.276h1.277a.64.64 0 0 0 0-1.28h-1.28zm24.233 1.276a.64.64 0 0 0 0-1.28h-1.28a.64.64 0 0 0 0 1.28h1.28z"/></svg>