<svg xmlns="http://www.w3.org/2000/svg" width="32" height="32"><path fill="#2196f3" d="M14.926 14.967h1.065v4.795h-1.065v-4.8zm4.265 2.13h1.065v2.665h-1.065v-2.665zm-8.53 1.6h1.065v1.065h-1.065v-1.065zm-3.2-.535h1.07v1.6h-1.07v-1.6z"/><path fill="#212121" d="M1.6 28.293h25.586a1.6 1.6 0 0 0 1.6-1.6v-2.135a1.6 1.6 0 0 0-1.6-1.6h-.535V9.673l3.031-2.871a1.609 1.609 0 1 0-.745-.754l-.004-.01L26.652 8.2V6.97a1.6 1.6 0 0 0-1.6-1.6H3.731a1.6 1.6 0 0 0-1.6 1.6v15.995h-.53a1.6 1.6 0 0 0-1.6 1.6v2.13a1.6 1.6 0 0 0 1.6 1.6zM30.386 4.837a.535.535 0 1 1-.003 1.066h.002a.536.536 0 0 1-.002-1.065h.002zM3.2 6.967a.53.53 0 0 1 .53-.53h21.321c.297 0 .535.238.535.53v2.24l-1.065 1.015V8.037a.533.533 0 0 0-.535-.535H4.8a.531.531 0 0 0-.53.535v13.326c0 .293.238.53.53.53h19.191a.532.532 0 0 0 .535-.53V11.69l1.065-1.01v12.283H3.2V6.968zm4.8 6.93h-.013a1.6 1.6 0 1 0 1.115 2.747l1.856.933a.538.538 0 0 0 .635-.123l3.936-4.434 3.872 2.903c.21.155.503.137.686-.037l3.369-3.191v8.137H5.33V8.562h18.126v2.661l-3.771 3.57-3.904-2.926a.535.535 0 0 0-.722.073v.001l-3.991 4.494-1.495-.75c.014-.064.018-.128.023-.192a1.6 1.6 0 0 0-1.6-1.6zm.53 1.6a.535.535 0 1 1-1.07 0 .535.535 0 1 1 1.07 0zm3.2 8.53h5.321v.53a.532.532 0 0 1-.53.535h-4.265a.536.536 0 0 1-.535-.535v-.53zm-10.669.531c0-.293.238-.53.535-.53h9.061v.53a1.6 1.6 0 0 0 1.6 1.6h4.265a1.6 1.6 0 0 0 1.6-1.6v-.53h9.061a.53.53 0 0 1 .53.53v2.135a.53.53 0 0 1-.53.53H1.601a.532.532 0 0 1-.535-.53v-2.135z"/></svg>