<svg aria-hidden="true" style="position:absolute;width:0;height:0;overflow:hidden" xmlns="http://www.w3.org/2000/svg"><defs>
<symbol id="icon-antenna-1" viewBox="0 0 32 32"><path fill="#212121" style="fill:var(--color1, #212121)" d="m30.775 22.098-8.443-8.503.937-4.617c.242.091.498.142.759.146h.027a2.157 2.157 0 1 0-.001-4.316 2.158 2.158 0 0 0-2.023 2.91l-.005-.015-.005-.015-4.955.603L8.975.158a.537.537 0 0 0-.379-.16h-.001a.513.513 0 0 0-.369.155L6.713 1.657a.53.53 0 0 0 0 .754l.814.823c-1.143 2.062-1.816 4.522-1.816 7.14 0 4.106 1.656 7.824 4.336 10.525l-.001-.001c.041.041.09.074.143.1l.003.001c-.032.183-.05.366-.05.549v6.185h-6.4a2.67 2.67 0 0 0-2.67 2.665v1.065c0 .297.238.535.535.535h24.535c.293 0 .53-.238.53-.535v-1.065a2.67 2.67 0 0 0-2.665-2.665h-6.4V24.99c.915.2 1.966.315 3.043.315 2.581 0 5.008-.659 7.123-1.817l-.077.039.818.823c.095.099.228.16.375.16a.553.553 0 0 0 .375-.155l1.509-1.509a.524.524 0 0 0 .001-.75zM23.278 6.235a1.064 1.064 0 0 1 1.817.754c0 .588-.476 1.064-1.063 1.065h-.002a1.065 1.065 0 0 1-.747-1.824zm-1.253 3.502-.599 2.944-1.175-1.179 1.774-1.765zm-.608-.9-1.92 1.906-1.486-1.49 3.406-.416zM24.005 28.8a1.6 1.6 0 0 1 1.6 1.6v.535H2.14V30.4a1.6 1.6 0 0 1 1.6-1.6h20.261zm-7.466-2.135v1.07H11.2v-1.07h5.335zM11.2 25.6v-4.055c0-1.294 1.198-2.345 2.665-2.345 1.472 0 2.67 1.051 2.67 2.345V25.6H11.2zm6.4-1.696v-2.359c0-1.879-1.673-3.41-3.735-3.41h-.064a3.795 3.795 0 0 0-3.2 1.753l-.009.015-.009.016a13.762 13.762 0 0 1-3.809-9.525v-.024.001c0-2.314.567-4.496 1.569-6.415l-.036.077 18.606 18.711c-1.822.946-3.978 1.501-6.264 1.501-1.08 0-2.132-.124-3.141-.358l.093.018zm11.291-.686-.754-.754L7.835 2.039l.754-.75L29.65 22.468l-.759.75z"/><path fill="#2196f3" style="fill:var(--color2, #2196f3)" d="M13.874 20.265h-.007a1.6 1.6 0 0 0-.003 3.2h.008a1.6 1.6 0 0 0 .001-3.2zm.375 1.98a.534.534 0 0 1-.912-.377v-.003c0-.296.238-.533.532-.535a.534.534 0 0 1 .375.914z"/></symbol>
<symbol id="icon-astronaut-1" viewBox="0 0 32 32"><path fill="#2196f3" style="fill:var(--color2, #2196f3)" d="M31.973 4.526a.54.54 0 0 0-.427-.366h-.003l-1.911-.274-.855-1.737c-.178-.361-.777-.361-.955 0l-.85 1.737-1.911.274a.536.536 0 0 0-.297.915l1.385 1.344-.325 1.902a.536.536 0 0 0 .779.56l-.003.001-.003.001 1.71-.896 1.705.896a.536.536 0 0 0 .776-.569v.006l-.329-1.902 1.385-1.349a.538.538 0 0 0 .136-.553l.001.004zm-2.46 1.325a.53.53 0 0 0-.155.474v-.003l.192 1.115-1.001-.526a.525.525 0 0 0-.504.003l.003-.001.003-.001-1.001.526.192-1.115a.537.537 0 0 0-.151-.471l-.814-.791 1.12-.16a.545.545 0 0 0 .401-.29l.001-.003.503-1.015.498 1.015c.08.154.226.264.399.293h.003l1.12.16-.809.791zm-3.378 14.675h-1.07v1.065h1.07v-1.07zm0 2.13h-1.07v1.065h1.07v-1.065zm1.065-1.065h-1.065v1.065H27.2v-1.065zm-2.135 0H24v1.065h1.065v-1.065zm-2.665 4.8h-1.065v1.065H22.4v-1.065zm0 2.135h-1.065v1.065H22.4v-1.07zm1.065-1.07H22.4v1.065h1.065v-1.065zm-2.13 0h-1.07v1.065h1.07v-1.065zM16 24.256h-1.065v1.065H16v-1.065zm0 2.135h-1.065v1.065H16v-1.065zm1.065-1.065H16v1.065h1.065v-1.07zm-2.13 0h-1.07v1.065h1.07v-1.07zm-9.07-19.2H4.8v1.065h1.065v-1.07zm0 2.13H4.8v1.065h1.065V8.256zm1.07-1.065h-1.07v1.065h1.07V7.191zm-2.135 0H3.735v1.065H4.8V7.191z"/><path fill="#212121" style="fill:var(--color1, #212121)" d="M24.713 14.158a1.777 1.777 0 0 0-1.169-.702l-.01-.001-.009-.001a1.759 1.759 0 0 0-1.347.358l.004-.003.004-.003-1.248.96-1.902 1.417-1.358-.539c2.423-1.088 4.114-3.506 4.114-6.322 0-3.822-3.122-6.93-6.962-6.93s-6.958 3.109-6.958 6.93c0 1.39.411 2.674 1.12 3.762l-2.77-.027-.023.005a.46.46 0 0 0-.158.033l.003-.001-.037.014-.023.005-3.232 1.6-1.893.91a1.783 1.783 0 0 0 1.794 3.08l-.009.005-.01.005 1.385-.736 2.263-1.17 1.358-.009-6.779 6.757a1.64 1.64 0 0 0-.002 2.353c.301.303.718.49 1.179.49s.878-.187 1.179-.49l1.307-1.312 1.742-1.298.901.896-1.76 1.755-1.339 1.33a1.637 1.637 0 0 0-.001 2.358c.301.303.718.49 1.179.49s.878-.187 1.179-.49l3.483-3.47 1.015-1.006h-.005l.018-.018 5.166-5.659 3.474.498a.494.494 0 0 0 .267-.039l-.003.001-.003.001.05-.023c.018-.009.041-.014.059-.027l3.214-2.13.027-.032.041-.023 1.271-1.193c.347-.326.562-.788.562-1.3 0-.401-.132-.771-.355-1.068l.003.005zM2.13 17.769a.715.715 0 0 1-.777-1.203l.003-.002.003-.002 1.317-.631.315.923.133.389-.992.526zm3.497-1.828-1.55.8L3.821 16l-.183-.535 2.03-1.006-.041 1.486zm15.1-6.615a5.77 5.77 0 0 1-.614 2.593l.015-.033-4.183-1.897a1.862 1.862 0 0 0-.774-1.382l-.006-.004-.006-.004 1.463-4.859c2.377.754 4.105 2.971 4.105 5.586zm-11.79 0a5.888 5.888 0 0 1 6.703-5.812l-.031-.003-.03-.003-1.435 4.754-.055-.005a1.874 1.874 0 0 0-1.874 1.864v.002a1.874 1.874 0 0 0 3.483.941l.005-.009.005-.009 3.858 1.755A5.893 5.893 0 0 1 8.932 9.329v-.002zm5.957.8a.807.807 0 1 1-1.614 0c0-.439.366-.8.809-.8s.805.361.805.8zM2.469 25.147a.611.611 0 0 1-.855 0 .593.593 0 0 1 0-.846l.96-.96.855.85-.965.951zm3.213 3.731a.6.6 0 0 1-1.004-.446.6.6 0 0 1 .15-.397l-.001.001.96-.96.855.846-.96.96zm3.484-3.465-1.769 1.76-.85-.85 1.765-1.751c.041-.046.064-.091.091-.137l.023-.046a.363.363 0 0 0 .027-.122v-.001c0-.027.014-.046.014-.073 0-.037-.014-.073-.018-.105l-.018-.096a.72.72 0 0 0-.092-.138l.001.001-.027-.041-1.609-1.6c-.014-.018-.037-.023-.055-.037-.032-.023-.059-.046-.091-.059a.47.47 0 0 0-.085-.03l-.003-.001-.003-.001a.508.508 0 0 0-.095-.023h-.006c-.032 0-.064 0-.096.009-.037 0-.069.009-.105.018a.307.307 0 0 0-.092.047l.001-.001c-.023.009-.046.014-.064.027l-1.774 1.326-.901-.901 2.4-2.386 4.361 4.293-.928.914zm6.816-7.018h-.046l-.025-.001h-.002a.52.52 0 0 0-.354.138l-.041.032-4.699 5.143-4.325-4.251 2.834-2.821a.534.534 0 0 0-.377-.914H8.94l-2.217.014.027-1.609 3.104.027a6.91 6.91 0 0 0 4.967 2.099h.011-.001c.455 0 .899-.044 1.33-.127l-.044.007a.544.544 0 0 0 .125.086l.003.001 2.409.96.151.759.183.882-3.008-.425zm4.041.179-.311-1.559 1.445-1.079.379.503.567.75-2.08 1.385zm3.758-2.835-.841.786-.928-1.234.827-.64a.724.724 0 0 1 .557-.14l-.004-.001-.004-.001a.72.72 0 0 1 .395 1.234z"/><path fill="#212121" style="fill:var(--color1, #212121)" d="m13.6 18.546-2.139-2.135a.534.534 0 0 0-.754 0l-2.144 2.135a.534.534 0 0 0 0 .754l2.144 2.135a.534.534 0 0 0 .754 0L13.6 19.3a.534.534 0 0 0 0-.754zm-2.514 1.756-1.394-1.376 1.385-1.381 1.39 1.381-1.39 1.381zm6.08-15.228-.261 1.033c.073.018 1.737.453 1.737 2.149h1.07c0-2.016-1.669-2.967-2.546-3.186zm2.546 4.252h-1.07v1.065h1.07v-1.07z"/></symbol>
<symbol id="icon-clock-1" viewBox="0 0 32 32"><path fill="#212121" style="fill:var(--color1, #212121)" d="M31.296 15.301C31.295 6.849 24.443-.002 15.991-.002S.686 6.85.686 15.303c0 6.79 4.422 12.548 10.543 14.55l.108.031a.678.678 0 0 0 .537-.068l-.003.002-.003.002a.655.655 0 0 0 .282-.352l.001-.005 3.863-12.251a1.912 1.912 0 1 0-.863-3.625l.011-.005.011-.005-5.102-5.106a.64.64 0 0 0-.905.901l-.001-.001 5.105 5.11a1.87 1.87 0 0 0 .527 2.302l.008.006L11.12 28.46c-5.408-2.035-9.186-7.165-9.186-13.177 0-7.756 6.287-14.043 14.043-14.043S30.02 7.527 30.02 15.283c0 5.688-3.381 10.586-8.243 12.793l-.088.036-.398-1.874a.643.643 0 0 0-1.048-.342l.001-.001.001-.001-3.84 3.429a.64.64 0 0 0 .224 1.077l.005.001.005.001 4.901 1.563a.64.64 0 0 0 .817-.749l.001.004.001.004-.393-1.838c5.529-2.374 9.33-7.772 9.33-14.057v-.032zm-15.305-.64a.64.64 0 0 1 0 1.28.64.64 0 0 1 0-1.28zm2.103 14.866 2.185-1.947.599 2.839-2.789-.891z"/><path fill="#2196f3" style="fill:var(--color2, #2196f3)" d="M15.355 3.186v1.275a.64.64 0 1 0 1.278.05l-.002-.054v.004-1.28a.64.64 0 0 0-1.28 0zM3.877 14.665a.642.642 0 0 0-.005 1.276H5.152a.64.64 0 0 0 0-1.28h-1.28zm24.233 1.276a.64.64 0 0 0 0-1.28h-1.28a.64.64 0 0 0 0 1.28h1.28z"/></symbol>
<symbol id="icon-diagram-1" viewBox="0 0 32 32"><path fill="#2196f3" style="fill:var(--color2, #2196f3)" d="M14.926 14.967h1.065v4.795h-1.065v-4.8zm4.265 2.13h1.065v2.665h-1.065v-2.665zm-8.53 1.6h1.065v1.065h-1.065v-1.065zm-3.2-.535h1.07v1.6h-1.07v-1.6z"/><path fill="#212121" style="fill:var(--color1, #212121)" d="M1.6 28.293h25.586a1.6 1.6 0 0 0 1.6-1.6v-2.135a1.6 1.6 0 0 0-1.6-1.6h-.535V9.673l3.031-2.871a1.609 1.609 0 1 0-.741-.745l-.004-.01-.004-.01-2.281 2.162v-1.23a1.6 1.6 0 0 0-1.6-1.6H3.731a1.6 1.6 0 0 0-1.6 1.6v15.995h-.53a1.6 1.6 0 0 0-1.6 1.6v2.13a1.6 1.6 0 0 0 1.6 1.6zM30.386 4.837a.536.536 0 1 1 .045 1.068l-.05-.002h.004a.537.537 0 0 1-.005-1.065h.005zM3.2 6.967a.53.53 0 0 1 .53-.53h21.321c.297 0 .535.238.535.53v2.24l-1.065 1.015V8.035a.533.533 0 0 0-.533-.533H4.8a.531.531 0 0 0-.53.531v13.33c0 .293.238.53.53.53h19.194a.532.532 0 0 0 .532-.53V11.69l1.065-1.01v12.283H3.2V6.968zm4.8 6.93H7.986a1.6 1.6 0 1 0 1.116 2.747l1.856.933a.535.535 0 0 0 .635-.123l3.936-4.434 3.872 2.903c.21.155.503.137.686-.037l3.369-3.191v8.137H5.33V8.562h18.126v2.661l-3.771 3.57-3.904-2.926a.532.532 0 0 0-.721.073v.002l-3.991 4.494-1.495-.75c.014-.064.018-.128.023-.192a1.6 1.6 0 0 0-1.6-1.6zm.53 1.6a.536.536 0 0 1-1.07 0 .536.536 0 0 1 1.07 0zm3.2 8.53h5.321v.533a.532.532 0 0 1-.53.532h-4.265a.537.537 0 0 1-.535-.535v-.53zm-10.669.531c0-.293.238-.53.535-.53h9.061v.53a1.6 1.6 0 0 0 1.6 1.6h4.265a1.6 1.6 0 0 0 1.6-1.6v-.53h9.061a.53.53 0 0 1 .53.53v2.135a.53.53 0 0 1-.53.53H1.598a.532.532 0 0 1-.532-.53v-2.135z"/></symbol>
<symbol id="icon-envelope-hover" viewBox="0 0 43 32"><path  d="M38.667 0H4C1.787 0 0 1.787 0 4v24c0 2.213 1.787 4 4 4h34.667c2.213 0 4-1.787 4-4V4c0-2.213-1.787-4-4-4zm0 2.667h.011c.189 0 .368.039.531.11l-.009-.003-17.867 15.467L3.466 2.774c.154-.068.332-.107.521-.107h34.68zm0 26.666H4A1.333 1.333 0 0 1 2.667 28V5.6l17.787 15.413c.233.207.542.333.88.333s.648-.127.882-.336l-.001.001-.001.001L40.001 5.599v22.4c0 .736-.597 1.333-1.333 1.333z"/></symbol>
<symbol id="icon-facebook-1" viewBox="0 0 32 32"><path d="M21.33 5.31h2.93V.22C23.74.16 22.02 0 20 0c-4.22 0-7.1 2.66-7.1 7.52V12H8.26v5.68h4.64V32h5.7V17.7h4.46l.7-5.7h-5.17V8.08c0-1.65.45-2.77 2.74-2.77z"/></symbol>
<symbol id="icon-instagram-2" viewBox="0 0 32 32"><path  d="M31.97 9.4c-.03-1.4-.3-2.73-.76-3.96l.02.08a7.909 7.909 0 0 0-1.849-2.829l-.001-.001A7.962 7.962 0 0 0 26.594.868L26.54.85A11.246 11.246 0 0 0 22.681.1H22.66a105.96 105.96 0 0 0-6.783-.099L15.971 0h.1c-4.36 0-4.9.02-6.6.1-1.71.06-2.87.35-3.89.73a8.05 8.05 0 0 0-2.828 1.868l-.002.002A8.002 8.002 0 0 0 .92 5.466l-.019.054a11.243 11.243 0 0 0-.74 3.871V9.4a106.042 106.042 0 0 0-.099 6.783l-.001-.094v-.09c0 4.35 0 4.9.08 6.6.03 1.4.3 2.73.78 3.96l-.02-.08a7.824 7.824 0 0 0 1.848 2.828l.002.002a7.998 7.998 0 0 0 2.776 1.841l.054.019c1.01.38 2.18.65 3.88.73s2.24.1 6.59.1 4.9-.02 6.6-.1c1.4-.02 2.73-.29 3.96-.76l-.08.03a8.286 8.286 0 0 0 4.65-4.585l.02-.055.02-.05c.38-1.02.67-2.18.73-3.89.08-1.7.1-2.24.1-6.59 0-4.34 0-4.88-.08-6.6zm-2.88 13.08a8.503 8.503 0 0 1-.57 3.018l.02-.058a5.37 5.37 0 0 1-2.964 3.017l-.036.013-.04.01c-.56.22-1.42.48-2.97.54-1.68.08-2.2.1-6.47.1a108.928 108.928 0 0 1-6.943-.11l.243.009h.24a8.44 8.44 0 0 1-3.018-.56l.058.02a4.993 4.993 0 0 1-1.839-1.199l-.001-.001c-.52-.5-.93-1.1-1.19-1.79l-.01-.03a8.463 8.463 0 0 1-.54-2.979v-.001a105.313 105.313 0 0 1-.099-6.636l-.001.085v.09c0-4.28.02-4.79.1-6.47.06-1.57.32-2.4.54-2.97.26-.7.66-1.32 1.2-1.83.5-.52 1.12-.93 1.8-1.19h.04c.56-.23 1.4-.49 2.98-.55 1.68-.08 2.19-.1 6.44-.1 4.3 0 4.8 0 6.47.1 1.57.06 2.4.32 2.97.54.7.26 1.33.66 1.84 1.2.53.51.95 1.14 1.2 1.83.21.57.48 1.42.55 2.97.08 1.68.1 2.2.1 6.47s-.02 4.76-.1 6.46z"/><path d="M16.06 7.78c-4.54 0-8.22 3.68-8.22 8.22s3.68 8.22 8.22 8.22c4.54 0 8.22-3.68 8.22-8.22s-3.68-8.22-8.22-8.22zm0 13.55a5.33 5.33 0 1 1 0-10.66 5.33 5.33 0 1 1 0 10.66zM26.53 7.46a1.92 1.92 0 0 1-3.84 0 1.92 1.92 0 0 1 3.84 0z"/></symbol>
<symbol id="icon-linkedin-1" viewBox="0 0 32 32"><path  d="M32 32V20.26c0-5.73-1.23-10.16-7.95-10.16h-.268a6.958 6.958 0 0 0-5.975 3.388l-.018.032-.01.03h-.1v-2.91h-6.38V32h6.64V21.42c0-2.78.53-5.49 3.97-5.49 3.4 0 3.45 3.19 3.45 5.67V32h6.64zM.53 10.64h6.64V32H.53V10.64zM3.84 0A3.84 3.84 0 0 0 0 3.84v.02a3.87 3.87 0 0 0 3.838 3.87h.002A3.871 3.871 0 0 0 3.849 0h-.01z"/></symbol>

<!-- Постоянные клиенты -->

<symbol id="icon-Logo1" viewBox="0 0 57 32"><path  d="M20.27 3.73 24 7.27h-6.93v17.16H35.2v-6.56l3.73 3.53V3.73H20.27zm14.77 13.73L24.44 7.42h10.6v10.03zm-3.3 4.46h-11.8V10.39h.83v10.76h10.97v.78zm-9.01 4.8-.44.9-.44-.9h-.36l.64 1.2v.7h.32v-.7l.64-1.2h-.37zm.54 1.9.15-.44h.74l.16.43h.34l-.72-1.89h-.3l-.71 1.9h.35zm.52-1.5.28.79h-.55l.27-.79zm1.74.75a.425.425 0 0 0-.07.23c0 .16.05.3.17.4.1.1.26.14.45.14s.35-.05.48-.15l.1.12h.38l-.28-.32c.1-.15.16-.34.16-.58h-.27c0 .13-.03.25-.09.35l-.36-.43.13-.1c.1-.06.16-.13.2-.2a.421.421 0 0 0-.07-.52.476.476 0 0 0-.306-.111l-.025.001h.001-.055a.5.5 0 0 0-.326.121l.001-.001a.458.458 0 0 0-.14.361v-.001c0 .06.02.12.05.19s.08.14.15.23c-.1.08-.2.16-.28.27zm.85.41a.478.478 0 0 1-.3.11h-.01a.297.297 0 0 1-.2-.08.278.278 0 0 1-.1-.199V28.1c0-.11.06-.2.17-.28l.03-.03.41.5zm-.33-.84c-.1-.1-.14-.2-.14-.27s.02-.12.06-.16a.19.19 0 0 1 .13-.06h.01c.06 0 .1.02.15.05.03.03.05.08.05.13 0 .07-.03.13-.08.18l-.04.03-.14.1zm3.08 1.04c.13-.12.2-.28.23-.48h-.33a.52.52 0 0 1-.12.29c-.07.06-.16.08-.3.08h-.01a.37.37 0 0 1-.299-.159l-.001-.001a.811.811 0 0 1-.121-.429l.001-.043v.002-.16c0-.2.04-.36.12-.46.07-.1.19-.16.33-.16.12 0 .21.03.28.1s.1.15.12.28h.33a.722.722 0 0 0-.22-.48.726.726 0 0 0-.468-.17h-.042c-.16 0-.3.04-.41.11a.731.731 0 0 0-.268.315l-.002.005c-.07.13-.1.3-.1.47v.18c0 .17.03.33.1.46s.15.23.27.3c.11.08.25.11.4.11.2 0 .38-.05.51-.17zm1.94-.27c.06-.15.1-.3.1-.5v-.1c0-.19-.04-.35-.1-.48a.732.732 0 0 0-.67-.44h-.03c-.15 0-.28.04-.4.12s-.21.18-.28.32c-.06.14-.1.3-.1.5v.1c0 .18.04.34.1.48s.16.24.28.32a.819.819 0 0 0 .834-.002l-.004.002a.757.757 0 0 0 .268-.315l.002-.005zm-.36-1.07c.08.1.13.27.13.48v.1c0 .21-.04.37-.12.48a.38.38 0 0 1-.317.17H30.36a.401.401 0 0 1-.319-.169l-.001-.001a.807.807 0 0 1-.12-.493v.003-.1c0-.2.04-.36.12-.48a.39.39 0 0 1 .342-.16h-.001.01c.13 0 .246.062.319.159l.001.001z"/></symbol>
<symbol id="icon-Logo2" viewBox="0 0 57 32"><path  d="M26.73 3.16h-1.35c-1.94.11-3.84.6-5.6 1.44l-.23.1v11.82l.54-.18c1.73-.63 3.72-1 5.8-1.02h.01v1.55l-.56.01h-.05c-2.69.15-5.17.9-7.37 2.1l.1-.04V3.79a15.14 15.14 0 0 1 3.932-1.646l.108-.024.1-.02c1.18-.31 2.53-.5 3.91-.5h.24c.97 0 1.91.13 2.81.36l-.08-.01v1.53c-.54-.14-1.19-.24-1.85-.29h-.07l-.4-.03zm2.68 1.56a16.462 16.462 0 0 0 5.395-.536l-.115.027-.12.02c1.5-.38 2.82-.9 4.04-1.58l-.08.04v14.88c-1.2.7-2.58 1.29-4.05 1.66l-.1.03c-1.29.32-2.6.5-3.92.5h-.09c-1.02 0-2.01-.13-2.96-.37l.08.02V4.441c.56.13 1.21.23 1.89.28h.03zm7.58.12-.54.18c-1.782.653-3.839 1.03-5.984 1.03-.364 0-.726-.011-1.085-.032l.049.002h.05l-.44-.03v12.14l.37.04a14.356 14.356 0 0 0 4.791-.453l-.1.023-.1.01c1.05-.27 1.97-.6 2.84-1.03l-.09.04.24-.11V4.85zM19.06 24.11a.796.796 0 0 0-.57-.24h-.03a.974.974 0 0 0-.356.072l.006-.002a.802.802 0 0 0-.5.782v-.002 2.03l-.001.048c0 .25.108.476.281.631l.001.001c.08.07.17.12.27.14s.2.05.3.05c.47-.01.85-.4.85-.86v-.22h-.54v.18c0 .06 0 .12-.02.18a.315.315 0 0 1-.08.11.365.365 0 0 1-.22.08h-.04a.27.27 0 0 1-.21-.1.476.476 0 0 1-.07-.25v-.021.001-1.9c0-.1.02-.2.07-.3a.27.27 0 0 1 .22-.12h.04c.1 0 .17.05.23.11.05.08.09.17.09.27v.18h.52v-.21c0-.25-.09-.47-.24-.64zm3.14-.02a.931.931 0 0 0-.6-.216.957.957 0 0 0-.327.058l.006-.002c-.1.03-.2.09-.27.16a.888.888 0 0 0-.28.682v-.002 1.93c0 .14.02.28.07.4.05.11.12.2.2.27a.88.88 0 0 0 .605.237.901.901 0 0 0 .321-.059l-.006.002a.83.83 0 0 0 .56-.785V24.73c0-.25-.11-.48-.28-.64zm-.24 2.61v.03c0 .1-.04.2-.11.26a.39.39 0 0 1-.501 0h.001a.34.34 0 0 1-.101-.241l.001-.02v.001-2c0-.1.04-.18.1-.25a.39.39 0 0 1 .501 0h-.001c.07.07.1.16.1.26v1.96zm4.37.87V23.9h-.51l-.67 1.95-.68-1.95h-.5v3.68h.52v-2.24h.01l.51 1.58h.27l.52-1.58v2.24h.53zm2.98-3.41a.68.68 0 0 0-.295-.199l-.005-.001c-.1-.04-.23-.06-.36-.06h-.79v3.67h.52v-1.44h.27c.16.01.32-.02.47-.1a.881.881 0 0 0 .399-.585l.001-.005a2.484 2.484 0 0 0-.023-.977l.003.017v.02a.796.796 0 0 0-.19-.35zm-.26 1.12c-.01.06-.03.13-.06.19-.03.05-.07.1-.13.13a.507.507 0 0 1-.223.05h-.268V24.4h.27c.09 0 .16 0 .24.04.05.03.1.08.12.14.03.06.05.13.05.2v.5zm2.74-1.38h-.43l-.8 3.67h.52l.16-.78h.7l.17.78h.51l-.82-3.67zm-.48 2.38.26-1.33.26 1.33h-.52zm3.86-.17-.8-2.21h-.5v3.67h.53v-2.2l.8 2.2h.5V23.9h-.53v2.22zm3.2-2.21-.42 1.46-.44-1.46h-.55l.72 2.12v1.55h.53v-1.55l.72-2.12h-.56zM17.6 28.6h.25v.72h.17v-.71h.25v-.15h-.67v.15zm2.12-.14-.33.86h.18l.07-.2h.34l.07.2h.19l-.34-.86h-.18zm-.02.52.1-.32.12.32h-.22zm2.11.02h.2v.11a.33.33 0 0 1-.2.07h-.015a.21.21 0 0 1-.165-.08.354.354 0 0 1-.06-.199v-.021c0-.19.08-.28.24-.28h.02c.08 0 .15.05.18.13l.17-.03c-.04-.17-.16-.25-.37-.25h-.01c-.11 0-.21.04-.29.1a.408.408 0 0 0-.12.342v-.002c0 .11.03.23.11.32.08.07.18.12.3.12h.03c.13 0 .26-.04.36-.14v-.33h-.37V29zm2.15-.54h-.17v.86h.6v-.15h-.43v-.7zm1.81 0h-.17v.86h.17v-.86zm1.77.57-.35-.57h-.17v.86h.16v-.56l.35.56h.17v-.86h-.16v.57zm1.6-.09h.43v-.14h-.43v-.2h.45v-.14h-.63v.86h.66v-.15h-.48v-.23zm3.88-.14h-.34v-.34h-.17v.86h.17v-.38h.34v.38h.17v-.86h-.17v.34zm1.6.14h.44v-.14h-.43v-.2h.46v-.14h-.63v.86h.64v-.15h-.47v-.23zm2.2 0c.14-.02.21-.1.21-.24v-.02a.2.2 0 0 0-.08-.16h-.001a.468.468 0 0 0-.219-.06h-.391v.86h.17v-.36h.03c.04 0 .08 0 .11.02s.05.04.06.07l.2.26h.2l-.11-.16a.566.566 0 0 0-.188-.209l-.002-.001zm-.18-.11h-.13v-.22h.14c.05 0 .12 0 .17.02a.1.1 0 0 1 0 .18h-.001a.456.456 0 0 1-.136.02h-.014.001-.03zm1.82.11h.43v-.14h-.43v-.2h.46v-.14h-.63v.86h.64v-.15h-.47v-.23z"/></symbol>

<symbol id="icon-Logo3" viewBox="0 0 57 32">
<path  d="M19.41 26.19h.03l.02.01.12.12c-.1.09-.2.15-.33.2-.15.06-.3.09-.46.08-.15 0-.3-.02-.44-.07a.906.906 0 0 1-.528-.494l-.002-.006a1.022 1.022 0 0 1 .002-.807l-.003.007a.966.966 0 0 1 .563-.498l.007-.002a1.332 1.332 0 0 1 .889-.007l-.009-.003h-.01c.1.04.22.1.3.18l-.09.11-.03.03-.015.002a.068.068 0 0 1-.015-.002h-.006a.114.114 0 0 1-.045-.01h.001l-.05-.03-.07-.04a.801.801 0 0 0-.354-.08h-.056c-.1 0-.21.01-.31.05-.19.063-.34.2-.418.376l-.002.004a.91.91 0 0 0 .002.636l-.002-.006c.07.19.21.33.4.4.1.02.2.05.3.05l.18-.02a.698.698 0 0 0 .381-.161l-.001.001a.097.097 0 0 1 .05-.02zm3.36-.56c0 .14-.02.26-.07.4a.948.948 0 0 1-.563.498l-.007.002c-.28.1-.6.1-.88 0a1.03 1.03 0 0 1-.351-.201l.001.001a.91.91 0 0 1-.208-.294l-.002-.006v-.01a.988.988 0 0 1 .003-.796l-.003.006a.945.945 0 0 1 .219-.299l.001-.001a1.136 1.136 0 0 1 .782-.27h-.002c.16 0 .31.02.45.07.373.115.64.457.64.862v.039zm-.3 0c0-.11-.02-.22-.05-.32a.668.668 0 0 0-.395-.379l-.005-.001a1.014 1.014 0 0 0-.657.002l.007-.002a.703.703 0 0 0-.24.15.617.617 0 0 0-.158.226l-.002.004a.985.985 0 0 0 .002.647l-.002-.007c.07.18.21.32.4.38.2.07.44.07.64 0 .1-.04.18-.08.25-.15a.65.65 0 0 0 .158-.226l.002-.004c.03-.11.05-.22.05-.32zm2.6.33.03.07.03-.07.04-.07.74-1.17.04-.04h.28v1.9h-.26v-1.52l-.74 1.19a.107.107 0 0 1-.049.04h-.001a.12.12 0 0 1-.051.01h-.13a.096.096 0 0 1-.04-.04l-.77-1.2v1.53h-.25v-1.9h.28c.02 0 .03.02.04.03l.76 1.18.04.07zm2.8-.1v.72h-.3v-1.9h.65c.12 0 .24 0 .36.04.1.02.18.06.26.11.06.06.11.12.15.19.03.08.05.16.04.25 0 .17-.08.33-.2.43a.63.63 0 0 1-.266.129l-.004.001c-.1.03-.21.04-.34.04h-.36zm0-.2h.34c.08 0 .16 0 .23-.03a.508.508 0 0 0 .161-.081l-.001.001a.368.368 0 0 0 .13-.282V25.239c0-.05 0-.1-.02-.13a.401.401 0 0 0-.099-.13h-.001a.624.624 0 0 0-.402-.099h.002-.35v.78zm3.9.92h-.23a.1.1 0 0 1-.06-.02.135.135 0 0 1-.04-.039v-.001l-.2-.46h-.99l-.2.46a.1.1 0 0 1-.092.06h-.259l.88-1.91h.3l.88 1.9zm-1.44-.7h.82l-.34-.78a1.052 1.052 0 0 1-.068-.162l-.002-.008v-.01l-.03.1-.03.08-.35.77zm2.7-1.2.04.04 1.28 1.44v-1.49h.25v1.91h-.14l-.06-.01a.164.164 0 0 1-.05-.04l-1.27-1.44v1.5h-.26v-1.92h.16l.05.01zm3.72 1.14v.76h-.3v-.76l-.8-1.15h.27a.1.1 0 0 1 .06.02l.04.04.5.75.08.16.1-.16.49-.75a.296.296 0 0 1 .039-.04h.001a.103.103 0 0 1 .06-.02h.27l-.82 1.16zm-11.83-4.35.39.03a10.781 10.781 0 0 0 4.731-3.534l.019-.026.02-.03a8.472 8.472 0 0 0 1.7-5.11v-.011.001-.16l-2.17-1.87c.144.621.226 1.334.226 2.066 0 1.399-.3 2.727-.84 3.925l.024-.06c-.9 1.99-2.31 3.6-4.05 4.76l-.05.02z"/>
<path d="M24.15 21.39h.06a10.893 10.893 0 0 0 4.293-4.851l.027-.069a8.945 8.945 0 0 0 .768-3.656c0-.925-.138-1.817-.395-2.658l.017.064.01.07-3.08-2.67a11.222 11.222 0 0 1 1.533 5.697c0 .512-.034 1.017-.1 1.511l.006-.058v-.06c-.35 2.6-1.48 4.9-3.15 6.68zm10.45-6.55A9.7 9.7 0 0 1 31 20.1l-.03.02c-.53.4-1.1.76-1.72 1.07a10.612 10.612 0 0 0 4.022-1.977l-.022.017a8.986 8.986 0 0 0 2.547-3.206l.023-.054.03-.05-1.25-1.08z"/>
<path d="m34.1 14.54-1.77-1.55a8.863 8.863 0 0 1-1.717 5.035L30.63 18l.03-.02a11 11 0 0 1-4.223 3.502l-.067.028-.06.03c.4 0 .8-.03 1.2-.06 1.7-.6 3.13-1.54 4.3-2.75a8.999 8.999 0 0 0 2.277-4.068l.013-.062v-.06zm-9.69-8.05L22.3 4.64c-1.9.62-3.49 1.74-4.68 3.2l-.01.01a7.904 7.904 0 0 0-1.77 4.947v.003a8.024 8.024 0 0 0 2.155 5.395l-.005-.005a10.328 10.328 0 0 0 5.362 3.067l.068.013.07.01a11.563 11.563 0 0 0 3.248-7.18l.002-.04v-.04l.02-.64c0-2.6-.88-5-2.36-6.92l.02.03zm14.6 7.77a8.205 8.205 0 0 0-2.947-6.169l-.013-.011a10.784 10.784 0 0 0-7.008-2.57h-.092c-1.23 0-2.45.2-3.6.6l12.99 11.27c.42-.92.67-2 .67-3.12z"/></symbol>

<symbol id="icon-Logo4" viewBox="0 0 57 32">
<path  d="M12.88 11.25c-1.28 0-2.32.93-2.32 2.06 0 1.14 1.04 2.06 2.31 2.06 1.29 0 2.33-.92 2.33-2.06 0-1.13-1.04-2.06-2.32-2.06zm17.1-.65c-.01-1.58-.72-3.1-1.98-4.22a7.086 7.086 0 0 0-4.664-1.74h-.066c-1.78 0-3.48.63-4.74 1.75a5.634 5.634 0 0 0-1.97 4.196V19.3s13.41-1.33 13.41-8.7zM5.86 22.16c0 1.1.5 2.15 1.37 2.93a4.934 4.934 0 0 0 3.246 1.21H10.519c1.24 0 2.42-.43 3.3-1.21a3.925 3.925 0 0 0 1.37-2.927V16.11s-9.33.92-9.33 6.05zm4.66 1.08h-.02a1.3 1.3 0 0 1-.666-.183l.006.003c-.2-.11-.35-.28-.44-.48a.938.938 0 0 1-.069-.646l-.001.007c.04-.2.15-.4.33-.55.17-.15.38-.25.62-.3.24-.03.48-.01.7.07s.42.22.56.4a.999.999 0 0 1-.148 1.369l-.001.001c-.223.199-.519.32-.843.32h-.028.001zm9.43-.6h-.9v.94h-.47V21.3h1.48v.38h-1.01v.59h.9v.38zm2.25-.15c0 .23-.04.42-.12.59a.902.902 0 0 1-.82.53h-.064a.9.9 0 0 1-.814-.515l-.002-.005a1.294 1.294 0 0 1-.12-.55v-.14c0-.23.04-.43.13-.6a.913.913 0 0 1 .82-.53h.03c.18 0 .35.05.5.14.14.1.26.23.34.4.08.16.12.36.12.59v.1zm-.48-.1a.947.947 0 0 0-.123-.555l.002.005a.422.422 0 0 0-.345-.18H21.228c-.16 0-.28.06-.36.18s-.13.3-.13.54v.11c0 .23.04.41.13.54s.2.2.37.2c.15 0 .27-.07.36-.19s.12-.3.12-.54v-.11zm2 .6c0-.1-.03-.17-.1-.21-.1-.07-.2-.12-.33-.15-.16-.05-.3-.1-.39-.16-.25-.14-.39-.33-.39-.56 0-.13.04-.24.11-.33s.17-.17.3-.23a1.125 1.125 0 0 1 .877.013l-.007-.003c.237.104.4.336.4.607v.004h-.47v-.016a.301.301 0 0 0-.1-.224.404.404 0 0 0-.25-.09h-.05c-.09 0-.17.03-.24.08a.23.23 0 0 0-.1.19c0 .08.04.13.12.19.07.05.18.1.33.14.26.08.45.18.58.3a.6.6 0 0 1 .18.429v.012-.001c0 .2-.07.35-.22.46s-.35.17-.6.17h-.02c-.17 0-.33-.03-.47-.1a.682.682 0 0 1-.44-.63v-.01h.47c0 .25.16.37.46.37.1 0 .2-.02.26-.06.06-.06.09-.11.09-.2zm2.5-1.31h-.7v1.9h-.46v-1.9h-.7v-.37h1.86v.37zm1.64.9h-.9v.62h1.06v.37H26.5V21.3h1.52v.38h-1.05v.54h.9v.37zm1.28.17h-.38v.83h-.47V21.3h.85c.26 0 .47.06.62.18.14.12.21.3.21.51 0 .16-.03.28-.1.39a.615.615 0 0 1-.296.239l-.004.001.5.94v.02h-.51l-.43-.83zm-.38-.39h.38c.11 0 .2-.02.27-.08.06-.06.1-.14.1-.23v-.02c0-.1-.03-.2-.1-.25-.06-.07-.15-.1-.27-.1h-.38v.68zm2.84.41v.8h-.47V21.3h.89c.17 0 .32.03.45.1.13.06.23.15.3.26.07.12.1.25.1.4 0 .22-.07.4-.23.53a.96.96 0 0 1-.566.182l-.067-.002h.003-.4zm0-.37h.435a.395.395 0 0 0 .265-.101c.07-.05.1-.14.1-.24v-.01c0-.1-.04-.2-.1-.26a.368.368 0 0 0-.253-.1H31.6v.7zm2.97.2h-.9v.6h1.05v.37H33.2V21.3h1.52v.38h-1.05v.54h.9v.37zm2.17-.92h-.7v1.9h-.47v-1.9h-.68v-.37h1.85v.37zm1.64.91h-.9v.61h1.05v.37H37V21.3h1.52v.38H37.5v.54h.9v.37zm1.27.16h-.37v.83h-.47V21.3h.84c.27 0 .49.06.63.18s.21.3.21.51c0 .16-.03.28-.1.39a.657.657 0 0 1-.296.238l-.004.002.5.94v.02h-.51l-.43-.83zm-.38-.39h.38c.12 0 .22-.02.28-.08s.1-.14.1-.23v-.02c0-.1-.04-.2-.1-.25-.05-.07-.15-.1-.28-.1h-.37v.68zm2.76.62c0-.09-.03-.16-.1-.2-.09-.06-.2-.12-.32-.15-.17-.05-.3-.1-.4-.16-.25-.14-.38-.33-.38-.56 0-.13.03-.24.1-.33.07-.1.17-.17.3-.23a1.15 1.15 0 0 1 .878.013l-.008-.003c.237.104.4.336.4.607v.004h-.47c0-.1-.03-.18-.1-.24a.404.404 0 0 0-.25-.09h-.05c-.09 0-.17.03-.24.08a.23.23 0 0 0-.1.19c0 .08.04.13.11.19.08.05.19.1.34.14.27.08.46.18.58.3s.18.26.18.44c0 .2-.07.35-.22.46s-.35.17-.6.17h-.02c-.17 0-.33-.03-.47-.1a.682.682 0 0 1-.44-.63v-.01h.48c0 .25.14.37.44.37.12 0 .2-.02.27-.06.06-.06.1-.11.1-.2z"/></symbol>

<symbol id="icon-Logo5" viewBox="0 0 57 32">
<path  d="M14.27 23.86c.13.15.2.33.2.52l.001.027c0 .122-.03.236-.082.337l.002-.004a.895.895 0 0 1-.219.299l-.001.001c-.26.17-.57.26-.89.24h-1.55v-3.3h1.52l.08-.01c.29 0 .55.09.77.23a.76.76 0 0 1 .29.598v.024-.001l.001.031a.7.7 0 0 1-.181.47l.001-.001a.826.826 0 0 1-.455.259l-.005.001c.2.03.39.13.52.28zm-1.81-.5h.64c.15.01.3-.03.42-.1.05-.05.08-.1.1-.16a.32.32 0 0 0 .031-.14l-.001-.031v.001a.35.35 0 0 0-.021-.183l.001.002a.416.416 0 0 0-.1-.14.656.656 0 0 0-.443-.11h.003-.64v.86zm1.12 1.27a.42.42 0 0 0 .15-.322v-.019.001-.02a.42.42 0 0 0-.159-.319l-.001-.001a.706.706 0 0 0-.395-.12h-.715v.91h.7c.15.01.3-.03.42-.12zm3.8.65-.85-1.3h-.32v1.3h-.72v-3.3h1.37l.1-.01c.33 0 .63.1.87.29a.99.99 0 0 1 .098 1.362l.001-.002c-.17.18-.4.3-.66.34l.9 1.32h-.8zm-1.17-1.74h.6c.4 0 .61-.16.61-.5v-.02a.498.498 0 0 0-.16-.35.666.666 0 0 0-.399-.14H16.2v1zm5.13 1.07h-1.45l-.25.67h-.77l1.34-3.27h.82l1.32 3.27h-.76l-.26-.67zm-.2-.5-.53-1.39-.52 1.4h1.06zm5.16 1.17h-.72l-1.61-2.25v2.24h-.72v-3.3h.72l1.62 2.27v-2.26h.72v3.3zm4.12-.8c-.15.26-.38.46-.66.6-.31.14-.66.2-1 .2h-1.29v-3.3h1.28c.35-.01.7.06 1.02.2.27.13.5.33.65.58a1.769 1.769 0 0 1-.004 1.739l.005-.009zm-.83-.07c.2-.22.32-.5.32-.79s-.11-.57-.32-.79a1.307 1.307 0 0 0-.904-.269h.004-.5v2.13h.5c.33.02.65-.08.9-.28zm-7.8-20.8s9.3 3.21 9.1 7.87v7.87s-9.29-3.22-9.1-7.87V3.6zm17.39 13.9a13.157 13.157 0 0 1 5.795-1.996l.055-.004h.06v-2.46a12.099 12.099 0 0 0-5.865 4.383l-.025.037-.02.04z"/><path  d="M38.12 18.24c1.516-2.662 3.916-4.673 6.793-5.654L45 12.56l.09-.03v-7.1s-13.25 4.59-12.97 11.21v11.2s.59-.2 1.52-.59c0-.36 0-.72.05-1.08a11.369 11.369 0 0 1 4.374-7.88l.026-.02.03-.03z"/><path d="M36.86 22.4c.07-.77.23-1.54.47-2.29a10.28 10.28 0 0 0-2.8 6.744V26.88c.74-.33 1.62-.74 2.54-1.23a10.71 10.71 0 0 1-.197-3.293l-.003.043zm.53.05c-.09.98-.03 1.97.16 2.93 3.62-1.98 7.69-5.04 7.53-8.75v-.32a12.338 12.338 0 0 0-6.915 2.973l.015-.013.02-.01c-.42.93-.7 2.01-.8 3.15v.04z"/></symbol>

<symbol id="icon-Logo6" viewBox="0 0 57 32">
<path  d="M28.5 14.61a1.546 1.546 0 0 1-.33-1.064v.005-1.53c0-.47.1-.83.32-1.07s.59-.37 1.1-.37c.49 0 .84.1 1.04.31.23.27.34.6.31.92v.36h-.87v-.36c0-.13 0-.24-.03-.36a.355.355 0 0 0-.119-.21h-.001a.494.494 0 0 0-.28-.09h-.07a.526.526 0 0 0-.302.101l.002-.001a.418.418 0 0 0-.149.227l-.001.003c-.02.12-.03.25-.03.37v1.87c-.02.18.02.36.1.53a.439.439 0 0 0 .412.149h-.003.04c.1 0 .2-.03.27-.08a.372.372 0 0 0 .13-.228v-.002c.02-.12.03-.25.03-.37v-.39h.87v.35c.02.34-.08.68-.3.97-.2.22-.55.34-1.05.34s-.88-.13-1.1-.38zm3.64.03c-.22-.25-.33-.6-.33-1.06v-1.61c0-.46.1-.8.33-1.04.22-.24.59-.35 1.1-.35.52 0 .89.11 1.1.35.23.23.34.58.34 1.04v1.61c0 .46-.1.8-.33 1.05-.23.24-.59.36-1.1.36s-.9-.12-1.11-.36zm1.51-.4a.887.887 0 0 0 .111-.433l-.001-.049v.002-1.96l.002-.063a.851.851 0 0 0-.105-.411l.002.005a.407.407 0 0 0-.177-.129l-.003-.001a.47.47 0 0 0-.232-.03h.002H33.176a.48.48 0 0 0-.17.031l.003-.001a.435.435 0 0 0-.179.129l-.001.001a.941.941 0 0 0-.1.472v-.002 1.98c-.01.16.02.34.1.48a.617.617 0 0 0 .644.118l-.004.001c.07-.03.13-.07.18-.12zm2.08-3.62h.95l.7 3 .73-3h.92l.09 4.31h-.68l-.07-2.99-.7 3h-.55l-.73-3.01-.06 3h-.69l.09-4.3zm4.45 0h1.46c.85 0 1.27.42 1.27 1.23 0 .78-.44 1.17-1.33 1.17h-.5v1.91h-.9v-4.3zm1.25 1.85c.09 0 .18 0 .27-.02a.799.799 0 0 0 .232-.121l-.002.001a.698.698 0 0 0 .129-.483v.003c0-.14-.01-.27-.04-.4a.363.363 0 0 0-.178-.199l-.002-.001a.937.937 0 0 0-.361-.071l-.051.001h.002-.35v1.3h.35zm2.78-1.85h.98l1 4.31h-.85l-.2-.99h-.86l-.2 1h-.86l1-4.32zm.84 2.82-.34-1.8-.34 1.8h.68zM47 10.62h.63l1.21 2.46v-2.45h.76v4.3H49l-1.22-2.56v2.56H47v-4.3zm4.36 2.67-1.01-2.66h.85l.61 1.7.58-1.7h.83l-1 2.67v1.63h-.87V13.3zm-21.47 3.53v.22h-.74v1.75h-.3v-1.75h-.75v-.22h1.8zm2.32 1.98h-.24a.1.1 0 0 1-.07-.03.096.096 0 0 1-.04-.04l-.21-.47h-1.03l-.2.47-.04.05a.103.103 0 0 1-.06.02h-.25l.9-1.97h.33l.9 1.96zm-1.5-.74h.85l-.36-.8a1.219 1.219 0 0 1-.058-.171l-.002-.009v-.01l-.04.1-.03.09-.36.8zm3.06.54h.17c.1 0 .2-.03.29-.06h-.01l.12-.05v-.44h-.36c-.02 0-.04 0-.05-.02l-.01-.01-.01-.02v-.15h.7v.75c-.17.11-.38.18-.6.2l-.27.02c-.16 0-.31-.03-.46-.08a.963.963 0 0 1-.587-.504l-.002-.006a.983.983 0 0 1-.09-.415v-.048c0-.276.124-.522.319-.687l.001-.001c.1-.08.23-.15.36-.2a1.486 1.486 0 0 1 .749-.049l-.009-.001c.14.02.28.06.4.13l.16.1-.1.12c0 .01-.01.02-.03.02a.1.1 0 0 1-.029.02h-.001l-.06-.02a1.105 1.105 0 0 0-.577-.16H33.741c-.12 0-.24.02-.34.06a.743.743 0 0 0-.428.385l-.002.005a.933.933 0 0 0 .002.666l-.002-.006a.78.78 0 0 0 .804.449h-.004zm2.9-.04h.98v.23h-1.3v-1.97h.32v1.75zm2 .24h-.3v-1.98h.3v1.98zm1.16-1.97c.02 0 .04.02.05.03l1.32 1.5V16.8h.27v1.99h-.15c-.03 0-.05 0-.07-.02a.19.19 0 0 1-.05-.03l-1.32-1.5v1.55h-.26v-1.98h.21zm3.93-.01v.2h-1.1v.67h.89v.2h-.9v.68h1.1v.21h-1.41v-1.96h1.42zM11.29 4.62l13.76 3.37v11.82l-13.76-3.37V4.62zM10.4 3.6v13.41l15.51 3.81V7.42L10.4 3.6z"/><path d="M18.72 27.04 3.2 23.22V9.82l15.52 3.82v13.4z"/>
<path d="M10.66 4.46 24.24 7.8l-5.78 4.98L4.9 9.45l5.77-4.99zm-.26-.85L3.2 9.83l15.52 3.8 7.2-6.22-15.52-3.8zm9.2 22.67 6.33-5.46-6.34-1.56v7.02z"/></symbol>

<symbol id="icon-smartphone" viewBox="0 0 20 32"><path   d="M17 0H3a3 3 0 0 0-3 3v26a3 3 0 0 0 3 3h14a3 3 0 0 0 3-3V3a3 3 0 0 0-3-3zM3 2h14c.56 0 1 .44 1 1v21H2V3c0-.56.44-1 1-1zm14 28H3a1 1 0 0 1-1-1v-3h16v3a1 1 0 0 1-1 1z"/><path fill="#757575" style="fill:var(--color5, #757575)" d="M4.7 27.48c.4.36.4.96 0 1.32-.185.166-.431.267-.7.267s-.515-.101-.701-.268l.001.001a.899.899 0 0 1 0-1.319l.001-.001c.4-.36 1-.36 1.4 0z"/></symbol>
<symbol id="icon-twitter-1" viewBox="0 0 32 32"><path d="M32 6.08c-1.18.53-2.46.86-3.78 1.04a6.494 6.494 0 0 0 2.867-3.584l.013-.046a13.687 13.687 0 0 1-4.068 1.583l-.092.017a6.54 6.54 0 0 0-11.37 4.409v.043-.002c0 .54.06 1.06.18 1.56v-.04A18.54 18.54 0 0 1 2.286 4.263L2.26 4.23l-.03-.04a6.527 6.527 0 0 0-.888 3.306 6.592 6.592 0 0 0 2.846 5.429l.022.014.02.02a6.278 6.278 0 0 1-2.991-.816l.031.016v.06c0 3.2 2.27 5.84 5.26 6.45a6.258 6.258 0 0 1-1.712.233c-.46 0-.908-.048-1.34-.14l.042.007.04.01c.881 2.616 3.278 4.482 6.121 4.56H9.7a13.017 13.017 0 0 1-8.135 2.832 13.24 13.24 0 0 1-1.7-.109l.066.007h.07c2.811 1.849 6.257 2.95 9.96 2.95H10.071c12.08 0 18.67-10 18.67-18.67 0-.29 0-.58-.03-.85a13.204 13.204 0 0 0 3.26-3.353l.03-.047z"/></symbol>




<!-- Модалка -->
<symbol id="icon-Vector1" viewBox="0 0 32 32">
<path d="M32 3.2l-3.2-3.2-12.8 12.8-12.8-12.8-3.2 3.2 12.8 12.8-12.8 12.8 3.2 3.2 12.8-12.8 12.8 12.8 3.2-3.2-12.8-12.8 12.8-12.8z"></path>
</symbol>

<symbol id="icon-mail" viewBox="0 0 32 32">
<path d="M26.667 5.333h-21.333c-1.476 0-2.667 1.191-2.667 2.667v16c0 1.458 1.191 2.667 2.667 2.667h21.333c1.458 0 2.667-1.209 2.667-2.667v-16c0-1.476-1.209-2.667-2.667-2.667zM26.133 11.004l-9.422 5.884c-0.202 0.127-0.448 0.202-0.711 0.202s-0.509-0.075-0.717-0.206l0.006 0.003-9.422-5.867c-0.364-0.195-0.607-0.572-0.607-1.006 0-0.628 0.509-1.138 1.138-1.138 0.255 0 0.491 0.084 0.681 0.226l-0.003-0.002 8.924 5.564 8.942-5.582c0.193-0.155 0.441-0.249 0.71-0.249 0.628 0 1.138 0.509 1.138 1.138 0 0.454-0.266 0.846-0.65 1.028l-0.007 0.003z"></path>
</symbol>
<symbol id="icon-name" viewBox="0 0 32 32">
<path d="M16 16c2.946 0 5.333-2.388 5.333-5.333s-2.388-5.333-5.333-5.333v0c-2.946 0-5.333 2.388-5.333 5.333s2.388 5.333 5.333 5.333v0zM16 18.667c-3.556 0-10.667 1.778-10.667 5.333v1.333c0 0.729 0.604 1.333 1.333 1.333h18.667c0.729 0 1.333-0.604 1.333-1.333v-1.333c0-3.556-7.111-5.333-10.667-5.333z"></path>
</symbol>
<symbol id="icon-phone" viewBox="0 0 32 32">
<path d="M24.889 19.769l-3.271-0.356c-0.782-0.107-1.564 0.178-2.116 0.711l-2.364 2.382c-3.67-1.894-6.586-4.81-8.429-8.372l-0.051-0.108 2.382-2.382c0.551-0.551 0.818-1.333 0.729-2.116l-0.356-3.236c-0.156-1.288-1.243-2.276-2.56-2.276-0.006 0-0.012 0-0.019 0h-2.221c-1.458 0-2.667 1.209-2.578 2.667 0.716 10.991 9.453 19.729 20.38 20.441l0.065 0.003c1.458 0.089 2.667-1.12 2.667-2.578v-2.222c0-1.316-0.96-2.4-2.258-2.56z"></path>
</symbol>

<symbol id="icon-icon-confirm" viewBox="0 0 34 32">
<path fill="#2196f3" style="fill: var(--color1, #2196f3)" d="M4.267 0h25.6c2.356 0 4.267 1.91 4.267 4.267v23.467c0 2.356-1.91 4.267-4.267 4.267h-25.6c-2.356 0-4.267-1.91-4.267-4.267v-23.467c0-2.356 1.91-4.267 4.267-4.267z"></path>
<path fill="#fff" style="fill: var(--color2, #fff); stroke: var(--color2, #fff)" stroke="#fff" stroke-linejoin="miter" stroke-linecap="butt" stroke-miterlimit="4" stroke-width="0.4267" d="M8.448 16.533l-0.149-0.128-0.149 0.128-1.899 1.792-0.171 0.149 0.171 0.171 7.616 7.253 0.128-0.149 16.171-15.424-0.149-0.149-1.877-1.792-0.149-0.149-0.149 0.149-13.973 13.312-5.419-5.163z"></path>
</symbol>
<symbol id="icon-icon-box1" viewBox="0 0 34 32">
<path d="M30.336 3.563v24.875h-26.539v-24.875h26.539zM30.336 0h-26.539c-2.091 0-3.797 1.6-3.797 3.563v24.875c0 1.963 1.707 3.563 3.797 3.563h26.539c2.091 0 3.797-1.6 3.797-3.563v-24.875c0-1.963-1.707-3.563-3.797-3.563z"></path>
</symbol>

<!-- Чекбокс -->
<symbol id="icon-check" viewBox="0 0 34 32">
<path fill="#2196f3" style="fill: var(--color1, #2196f3)" d="M4.267 0h25.6c2.356 0 4.267 1.91 4.267 4.267v23.467c0 2.356-1.91 4.267-4.267 4.267h-25.6c-2.356 0-4.267-1.91-4.267-4.267v-23.467c0-2.356 1.91-4.267 4.267-4.267z"></path>
<path fill="#fff" style="fill: var(--color2, #fff); stroke: var(--color2, #fff)" stroke="#fff" stroke-linejoin="miter" stroke-linecap="butt" stroke-miterlimit="4" stroke-width="0.4267" d="M8.448 16.533l-0.149-0.128-0.149 0.128-1.899 1.792-0.171 0.149 0.171 0.171 7.616 7.253 0.128-0.149 16.171-15.424-0.149-0.149-1.877-1.792-0.149-0.149-0.149 0.149-13.973 13.312-5.419-5.163z"></path>
</symbol>
<symbol id="icon-Frame" viewBox="0 0 34 32">
<path d="M30.336 3.563v24.875h-26.539v-24.875h26.539zM30.336 0h-26.539c-2.091 0-3.797 1.6-3.797 3.563v24.875c0 1.963 1.707 3.563 3.797 3.563h26.539c2.091 0 3.797-1.6 3.797-3.563v-24.875c0-1.963-1.707-3.563-3.797-3.563z"></path>
</symbol>


<!-- Подписаться -->
<symbol id="icon-send-1" viewBox="0 0 32 32">
<path fill="#fff" style="fill: var(--color1, #fff)" d="M32 0l-32 18 10.227 3.787 15.773-14.787-12 16.187v8.813l5.733-6.693 7.267 2.693 5-28z"></path>
</symbol>

<!-- Хедер меню -->
<symbol id="icon-close-header" viewBox="0 0 32 32">
<path d="M23.736 10.304l-1.504-1.504-5.968 5.96-5.96-5.96-1.504 1.504 5.96 5.96-5.96 5.976 1.504 1.504 5.96-5.968 5.968 5.968 1.504-1.504-5.968-5.968 5.968-5.96z"></path>
</symbol>
<symbol id="icon-menu-header" viewBox="0 0 32 32">
<path d="M6.4 11.736v-2.136h19.2v2.136h-19.2zM6.4 17.064h19.2v-2.128h-19.2v2.128zM6.4 22.4h19.2v-2.136h-19.2v2.136z"></path>
</symbol>

</defs></svg>